Coordinates
version=1
nRows=16
nColumns=63
inDegrees=yes

Units are S.I. units (second, meters, Newtons, ...)
If the header above contains a line with 'inDegrees', this indicates whether rotational values are in degrees (yes) or radians (no).

endheader
time	pelvis_tilt	pelvis_list	pelvis_rotation	pelvis_tx	pelvis_ty	pelvis_tz	hip_flexion_r	hip_adduction_r	hip_rotation_r	knee_angle_r	knee_angle_r_beta	ankle_angle_r	subtalar_angle_r	mtp_angle_r	hip_flexion_l	hip_adduction_l	hip_rotation_l	knee_angle_l	knee_angle_l_beta	ankle_angle_l	subtalar_angle_l	mtp_angle_l	L5_S1_Flex_Ext	L5_S1_Lat_Bending	L5_S1_axial_rotation	L4_L5_Flex_Ext	L4_L5_Lat_Bending	L4_L5_axial_rotation	L3_L4_Flex_Ext	L3_L4_Lat_Bending	L3_L4_axial_rotation	L2_L3_Flex_Ext	L2_L3_Lat_Bending	L2_L3_axial_rotation	L1_L2_Flex_Ext	L1_L2_Lat_Bending	L1_L2_axial_rotation	L1_T12_Flex_Ext	L1_T12_Lat_Bending	L1_T12_axial_rotation	Abs_r3	Abs_r2	Abs_r1	Abs_t1	Abs_t2	neck_flexion	neck_bending	neck_rotation	arm_flex_r	arm_add_r	arm_rot_r	elbow_flex_r	pro_sup_r	wrist_flex_r	wrist_dev_r	arm_flex_l	arm_add_l	arm_rot_l	elbow_flex_l	pro_sup_l	wrist_flex_l	wrist_dev_l
0.000000	0.702357	-5.724132	99.208871	0.195018	1.028493	0.328640	-7.406825	2.195893	-15.842171	2.863842	0.049983	20.823410	0.443295	0.000000	-6.065373	-3.839325	5.197137	0.548094	0.009566	20.598493	3.738073	0.000000	0.087093	0.326606	-2.566860	0.161740	0.434386	-2.727288	0.143084	0.794109	-2.727288	0.099538	0.794109	-2.246002	0.080874	0.666014	-2.085573	0.049765	0.505912	-1.925145	0.622094	3.694630	-14.276103	0.000000	0.000000	22.540580	6.744759	9.764211	-1.810015	-25.408747	37.965240	111.478224	36.286912	-10.697094	15.702941	-13.471131	-19.976359	25.280800	110.346986	63.900083	4.531773	20.209105
0.018182	0.763051	-5.420711	98.159667	0.196772	1.029150	0.326016	-7.713684	2.246418	-14.960169	2.653967	0.046320	21.277286	0.786917	0.000000	-6.598725	-3.827930	5.363425	0.470003	0.008203	21.528221	3.045762	0.000000	0.078702	0.330542	-2.391557	0.146157	0.439621	-2.541029	0.129299	0.803679	-2.541029	0.089948	0.803679	-2.092612	0.073082	0.674041	-1.943140	0.044970	0.512009	-1.793668	0.562159	3.739154	-13.301123	0.000000	0.000000	22.391410	7.004187	9.758255	-1.660704	-25.636497	38.328020	111.679529	36.584320	-9.051096	16.301196	-14.125863	-19.480665	24.463616	111.230644	64.019759	3.474994	21.716928
0.036364	0.832512	-5.147762	97.232307	0.198274	1.029710	0.323761	-7.984306	2.306120	-14.069171	2.500133	0.043636	21.536153	0.816528	0.000000	-7.086852	-3.833077	5.360082	0.409563	0.007148	22.220737	2.517839	0.000000	0.070979	0.335758	-2.235292	0.131815	0.446558	-2.374998	0.116611	0.816362	-2.374998	0.081122	0.816362	-1.955881	0.065911	0.684678	-1.816175	0.040557	0.520089	-1.676469	0.506994	3.798162	-12.432024	0.000000	0.000000	22.183555	7.192339	9.696299	-1.552276	-25.869307	38.617849	111.948083	36.894142	-7.776384	16.753646	-14.668680	-19.071084	23.800178	112.007562	64.038662	2.550852	22.963431
0.054545	0.909131	-4.904023	96.420810	0.199542	1.030181	0.321852	-8.219771	2.373379	-13.181120	2.398188	0.041856	21.623830	0.573992	0.000000	-7.530548	-3.852925	5.214101	0.365072	0.006372	22.699816	2.133688	0.000000	0.063903	0.342058	-2.097302	0.118674	0.454937	-2.228384	0.104986	0.831679	-2.228384	0.073034	0.831679	-1.835139	0.059340	0.697524	-1.704058	0.036514	0.529848	-1.572977	0.456450	3.869426	-11.664566	0.000000	0.000000	21.923951	7.315051	9.587852	-1.478951	-26.103094	38.838280	112.274223	37.228453	-6.841509	17.074423	-15.107888	-18.738862	23.272940	112.686000	63.981442	1.756756	23.969680
0.072727	0.991296	-4.688231	95.719197	0.200590	1.030570	0.320262	-8.421157	2.446575	-12.307956	2.343980	0.040910	21.564138	0.101169	0.000000	-7.930604	-3.885632	4.952477	0.334825	0.005844	22.989234	1.872689	0.000000	0.057453	0.349244	-1.976825	0.106696	0.464495	-2.100376	0.094389	0.849153	-2.100376	0.065663	0.849153	-1.729722	0.053351	0.712179	-1.606170	0.032829	0.540979	-1.482618	0.410380	3.950721	-10.994506	0.000000	0.000000	21.619531	7.378162	9.442424	-1.434949	-26.333778	38.992867	112.648286	37.599326	-6.215019	17.277655	-15.451797	-18.475244	22.864359	113.274215	63.872749	1.090120	24.756738
0.090909	1.077396	-4.499124	95.121488	0.201436	1.030884	0.318966	-8.589542	2.524089	-11.461622	2.333355	0.040725	21.380894	-0.560078	0.000000	-8.287814	-3.929357	4.602204	0.317118	0.005535	23.112765	1.714226	0.000000	0.051608	0.357121	-1.873097	0.095842	0.474971	-1.990165	0.084787	0.868303	-1.990165	0.058983	0.868303	-1.638960	0.047924	0.728240	-1.521891	0.029489	0.553180	-1.404822	0.368633	4.039821	-10.417602	0.000000	0.000000	21.277233	7.387510	9.269523	-1.414490	-26.557277	39.085163	113.060611	38.018836	-5.865466	17.377472	-15.708712	-18.271474	22.556891	113.780467	63.737236	0.548353	25.345670
0.109091	1.165821	-4.335437	94.621704	0.202093	1.031130	0.317939	-8.726004	2.604300	-10.654058	2.362162	0.041228	21.097920	-1.367888	0.000000	-8.602969	-3.982258	4.190275	0.310247	0.005415	23.094186	1.637681	0.000000	0.046348	0.365490	-1.785356	0.086074	0.486102	-1.896940	0.076146	0.888653	-1.896940	0.052972	0.888653	-1.562186	0.043039	0.745308	-1.450601	0.026484	0.566144	-1.339017	0.331063	4.134498	-9.929612	0.000000	0.000000	20.903990	7.348931	9.078658	-1.411793	-26.769510	39.118721	113.501537	38.499057	-5.761398	17.388004	-15.886941	-18.118797	22.332991	114.213013	63.599551	0.128867	25.757541
0.127273	1.254959	-4.195908	94.213864	0.202579	1.031314	0.317155	-8.831623	2.685589	-9.897207	2.426249	0.042346	20.739034	-2.280400	0.000000	-8.876864	-4.042494	3.743685	0.312507	0.005454	22.957272	1.622436	0.000000	0.041652	0.374156	-1.712839	0.077353	0.497628	-1.819891	0.068431	0.909723	-1.819891	0.047604	0.909723	-1.498734	0.038678	0.762979	-1.391681	0.023800	0.579568	-1.284629	0.297519	4.232528	-9.526295	0.000000	0.000000	20.506738	7.268264	8.879338	-1.421079	-26.966397	39.097095	113.961400	39.052062	-5.871367	17.323381	-15.994793	-18.008457	22.175116	114.580113	63.484346	-0.170926	26.013415
0.145455	1.343199	-4.079276	93.891991	0.202909	1.031444	0.316590	-8.907476	2.766337	-9.203009	2.521462	0.044008	20.328056	-3.255752	0.000000	-9.110290	-4.108224	3.289428	0.322196	0.005623	22.725798	1.647875	0.000000	0.037499	0.382921	-1.654783	0.069640	0.509286	-1.758207	0.061607	0.931035	-1.758207	0.042858	0.931035	-1.447935	0.034822	0.780854	-1.344512	0.021427	0.593145	-1.241088	0.267853	4.331685	-9.203409	0.000000	0.000000	20.092412	7.151347	8.681072	-1.436567	-27.143855	39.023838	114.430539	39.689927	-6.163922	17.197732	-16.040573	-17.931701	22.065721	114.890025	63.416271	-0.353615	26.134357
0.163636	1.428931	-3.984276	93.650103	0.203098	1.031526	0.316219	-8.954642	2.844922	-8.583407	2.643650	0.046140	19.888806	-4.252083	0.000000	-9.304041	-4.177605	2.854498	0.337609	0.005892	22.423540	1.693379	0.000000	0.033868	0.391590	-1.610427	0.062897	0.520814	-1.711079	0.055642	0.952111	-1.711079	0.038708	0.952111	-1.409124	0.031450	0.798530	-1.308472	0.019352	0.606572	-1.207820	0.241917	4.429740	-8.956712	0.000000	0.000000	19.667948	7.004016	8.493370	-1.452477	-27.297804	38.902504	114.899293	40.424724	-6.607613	17.025187	-16.032591	-17.879772	21.987262	115.151008	63.419977	-0.421790	26.141432
0.181818	1.510543	-3.909645	93.482221	0.203163	1.031568	0.316015	-8.974200	2.919725	-8.050343	2.788661	0.048671	19.445102	-5.227530	0.000000	-9.458908	-4.248797	2.465889	0.357041	0.006232	22.074274	1.738331	0.000000	0.030739	0.399964	-1.579007	0.057085	0.531952	-1.677695	0.050500	0.972472	-1.677695	0.035131	0.972472	-1.381631	0.028544	0.815606	-1.282943	0.017564	0.619544	-1.184255	0.219563	4.524470	-8.781961	0.000000	0.000000	19.240280	6.832111	8.325739	-1.463029	-27.424163	38.736646	115.357999	41.268528	-7.170990	16.819876	-15.979152	-17.843915	21.922195	115.371321	63.520115	-0.378037	26.055703
0.200000	1.572801	-3.864632	93.356794	0.203175	1.031558	0.315920	-8.957654	2.968377	-7.644194	2.935784	0.051239	19.093475	-5.941995	0.000000	-9.562300	-4.302009	2.294057	0.376849	0.006577	21.764098	1.670265	0.000000	0.029185	0.406320	-1.559547	0.054199	0.540405	-1.657019	0.047947	0.987925	-1.657019	0.033355	0.987925	-1.364604	0.027101	0.828567	-1.267132	0.016676	0.629389	-1.169660	0.208463	4.596369	-8.673733	0.000000	0.000000	18.871525	6.658620	8.270244	-1.376865	-27.490543	38.544901	115.722423	42.449927	-7.827903	16.620068	-15.841604	-17.791466	21.797580	115.578634	63.999328	-0.045759	26.009868
0.218182	1.630439	-3.824926	93.335553	0.203036	1.031550	0.315954	-8.922404	3.021434	-7.406264	3.102692	0.054152	18.821628	-6.533374	0.000000	-9.630176	-4.364119	2.273986	0.394352	0.006883	21.498763	1.544985	0.000000	0.027122	0.412353	-1.557209	0.050369	0.548429	-1.654534	0.044559	1.002594	-1.654534	0.030998	1.002594	-1.362558	0.025186	0.840869	-1.265232	0.015498	0.638734	-1.167906	0.193731	4.664615	-8.660727	0.000000	0.000000	18.481369	6.463014	8.242996	-1.317362	-27.497667	38.258998	116.089661	43.841204	-8.579102	16.409578	-15.709871	-17.709533	21.596406	115.749724	64.689970	0.393220	25.836787
0.236364	1.678061	-3.804368	93.426591	0.202758	1.031530	0.316104	-8.863643	3.075503	-7.353983	3.271585	0.057100	18.629672	-6.981636	0.000000	-9.647240	-4.430453	2.406117	0.408932	0.007137	21.249745	1.393305	0.000000	0.026074	0.417287	-1.572138	0.048423	0.554992	-1.670397	0.042838	1.014591	-1.670397	0.029801	1.014591	-1.375621	0.024213	0.850932	-1.277362	0.014899	0.646377	-1.179103	0.186247	4.720433	-8.743759	0.000000	0.000000	18.109672	6.260287	8.257308	-1.269828	-27.470816	37.922951	116.459611	45.390710	-9.412976	16.193109	-15.555671	-17.646828	21.373568	115.889100	65.559293	0.959097	25.527483
0.254545	1.722194	-3.799185	93.504828	0.202494	1.031505	0.316319	-8.770240	3.117352	-7.344636	3.463328	0.060446	18.512183	-7.320861	0.000000	-9.641007	-4.489787	2.621262	0.418230	0.007299	21.029849	1.104785	0.000000	0.025057	0.421920	-1.588952	0.046533	0.561154	-1.688262	0.041165	1.025857	-1.688262	0.028637	1.025857	-1.390333	0.023268	0.860380	-1.291024	0.014317	0.653554	-1.191714	0.178977	4.772846	-8.837275	0.000000	0.000000	17.732329	6.060890	8.303753	-1.193794	-27.411405	37.565441	116.751108	46.986947	-9.992136	16.026148	-15.445762	-17.540875	21.079584	116.064279	66.422910	1.333983	25.331714
0.272727	1.760772	-3.802427	93.625386	0.202179	1.031487	0.316599	-8.670431	3.157349	-7.419804	3.642172	0.063568	18.465716	-7.545547	0.000000	-9.607872	-4.547245	2.912199	0.427814	0.007467	20.848784	0.781986	0.000000	0.022901	0.426238	-1.613733	0.042529	0.566897	-1.714592	0.037623	1.036355	-1.714592	0.026173	1.036355	-1.412017	0.021265	0.869185	-1.311158	0.013085	0.660243	-1.210300	0.163576	4.821691	-8.975101	0.000000	0.000000	17.353891	5.898370	8.410371	-1.087938	-27.327854	37.206145	116.989729	48.823263	-10.468648	15.938217	-15.330861	-17.419661	20.764312	116.232657	67.177238	1.671255	25.216904
